REM DIRINDEX 1\6,1\2\7,1\2\8,1\2\9,1\3\10,1\3\11,1\4\12,1\4\13,1\4\14,1\5\15,1\5\16,1\5\17
REM DIRNAME cjc041,folder01,folder02,folder03,folder04,folder05,folder06,folder07,folder08,folder09,folder10,folder11,folder12,folder13,folder14,folder15,folder16
TITLE ""
FILE "3Q_j_0981-0996.mp3" MP3
  TRACK 01 AUDIO
    TITLE "12:cjc041_0242"
    INDEX 01 00:00:00
  TRACK 02 AUDIO
    TITLE "0:"
    INDEX 01 00:01:32
  TRACK 03 AUDIO
    TITLE "13:cjc041_0243"
    INDEX 01 00:02:12
  TRACK 04 AUDIO
    TITLE "0:"
    INDEX 01 00:03:35
  TRACK 05 AUDIO
    TITLE "14:cjc041_0244"
    INDEX 01 00:04:17
  TRACK 06 AUDIO
    TITLE "0:"
    INDEX 01 00:08:11
  TRACK 07 AUDIO
    TITLE "12:cjc041_0245"
    INDEX 01 00:08:68
  TRACK 08 AUDIO
    TITLE "0:"
    INDEX 01 00:10:47
  TRACK 09 AUDIO
    TITLE "13:cjc041_0246"
    INDEX 01 00:11:29
  TRACK 10 AUDIO
    TITLE "0:"
    INDEX 01 00:12:63
  TRACK 11 AUDIO
    TITLE "14:cjc041_0247"
    INDEX 01 00:13:41
  TRACK 12 AUDIO
    TITLE "0:"
    INDEX 01 00:16:57
  TRACK 13 AUDIO
    TITLE "12:cjc041_0248"
    INDEX 01 00:17:31
  TRACK 14 AUDIO
    TITLE "0:"
    INDEX 01 00:18:62
  TRACK 15 AUDIO
    TITLE "13:cjc041_0249"
    INDEX 01 00:19:38
  TRACK 16 AUDIO
    TITLE "0:"
    INDEX 01 00:20:55
  TRACK 17 AUDIO
    TITLE "14:cjc041_0250"
    INDEX 01 00:21:37
  TRACK 18 AUDIO
    TITLE "0:"
    INDEX 01 00:24:08
  TRACK 19 AUDIO
    TITLE "12:cjc041_0251"
    INDEX 01 00:24:63
  TRACK 20 AUDIO
    TITLE "0:"
    INDEX 01 00:26:46
  TRACK 21 AUDIO
    TITLE "13:cjc041_0252"
    INDEX 01 00:27:30
  TRACK 22 AUDIO
    TITLE "0:"
    INDEX 01 00:29:50
  TRACK 23 AUDIO
    TITLE "14:cjc041_0253"
    INDEX 01 00:30:26
  TRACK 24 AUDIO
    TITLE "0:"
    INDEX 01 00:33:32
  TRACK 25 AUDIO
    TITLE "12:cjc041_0254"
    INDEX 01 00:34:12
  TRACK 26 AUDIO
    TITLE "0:"
    INDEX 01 00:35:55
  TRACK 27 AUDIO
    TITLE "13:cjc041_0255"
    INDEX 01 00:36:36
  TRACK 28 AUDIO
    TITLE "0:"
    INDEX 01 00:38:14
  TRACK 29 AUDIO
    TITLE "14:cjc041_0256"
    INDEX 01 00:39:00
  TRACK 30 AUDIO
    TITLE "0:"
    INDEX 01 00:41:44
  TRACK 31 AUDIO
    TITLE "12:cjc041_0257"
    INDEX 01 00:42:25
  TRACK 32 AUDIO
    TITLE "0:"
    INDEX 01 00:43:48
  TRACK 33 AUDIO
    TITLE "13:cjc041_0258"
    INDEX 01 00:44:28
  TRACK 34 AUDIO
    TITLE "0:"
    INDEX 01 00:45:37
  TRACK 35 AUDIO
    TITLE "14:cjc041_0259"
    INDEX 01 00:46:21
  TRACK 36 AUDIO
    TITLE "0:"
    INDEX 01 00:50:13
  TRACK 37 AUDIO
    TITLE "12:cjc041_0260"
    INDEX 01 00:51:01
  TRACK 38 AUDIO
    TITLE "0:"
    INDEX 01 00:52:47
  TRACK 39 AUDIO
    TITLE "13:cjc041_0261"
    INDEX 01 00:53:27
  TRACK 40 AUDIO
    TITLE "0:"
    INDEX 01 00:54:62
  TRACK 41 AUDIO
    TITLE "14:cjc041_0262"
    INDEX 01 00:55:44
  TRACK 42 AUDIO
    TITLE "0:"
    INDEX 01 00:59:20
  TRACK 43 AUDIO
    TITLE "12:cjc041_0263"
    INDEX 01 01:00:00
  TRACK 44 AUDIO
    TITLE "0:"
    INDEX 01 01:01:38
  TRACK 45 AUDIO
    TITLE "13:cjc041_0264"
    INDEX 01 01:02:16
  TRACK 46 AUDIO
    TITLE "0:"
    INDEX 01 01:03:59
  TRACK 47 AUDIO
    TITLE "14:cjc041_0265"
    INDEX 01 01:04:37
  TRACK 48 AUDIO
    TITLE "0:"
    INDEX 01 01:07:74
  TRACK 49 AUDIO
    TITLE "12:cjc041_0266"
    INDEX 01 01:08:60
  TRACK 50 AUDIO
    TITLE "0:"
    INDEX 01 01:10:26
  TRACK 51 AUDIO
    TITLE "13:cjc041_0267"
    INDEX 01 01:11:05
  TRACK 52 AUDIO
    TITLE "0:"
    INDEX 01 01:11:68
  TRACK 53 AUDIO
    TITLE "14:cjc041_0268"
    INDEX 01 01:12:48
  TRACK 54 AUDIO
    TITLE "0:"
    INDEX 01 01:16:40
  TRACK 55 AUDIO
    TITLE "12:cjc041_0269"
    INDEX 01 01:17:28
  TRACK 56 AUDIO
    TITLE "0:"
    INDEX 01 01:19:28
  TRACK 57 AUDIO
    TITLE "13:cjc041_0270"
    INDEX 01 01:20:08
  TRACK 58 AUDIO
    TITLE "0:"
    INDEX 01 01:21:55
  TRACK 59 AUDIO
    TITLE "14:cjc041_0271"
    INDEX 01 01:22:37
  TRACK 60 AUDIO
    TITLE "0:"
    INDEX 01 01:26:11
  TRACK 61 AUDIO
    TITLE "12:cjc041_0272"
    INDEX 01 01:26:68
  TRACK 62 AUDIO
    TITLE "0:"
    INDEX 01 01:28:55
  TRACK 63 AUDIO
    TITLE "13:cjc041_0273"
    INDEX 01 01:29:39
  TRACK 64 AUDIO
    TITLE "0:"
    INDEX 01 01:31:49
  TRACK 65 AUDIO
    TITLE "14:cjc041_0274"
    INDEX 01 01:32:29
  TRACK 66 AUDIO
    TITLE "0:"
    INDEX 01 01:36:50
  TRACK 67 AUDIO
    TITLE "12:cjc041_0275"
    INDEX 01 01:37:26
  TRACK 68 AUDIO
    TITLE "0:"
    INDEX 01 01:38:61
  TRACK 69 AUDIO
    TITLE "13:cjc041_0276"
    INDEX 01 01:39:41
  TRACK 70 AUDIO
    TITLE "0:"
    INDEX 01 01:40:74
  TRACK 71 AUDIO
    TITLE "14:cjc041_0277"
    INDEX 01 01:41:54
  TRACK 72 AUDIO
    TITLE "0:"
    INDEX 01 01:45:32
  TRACK 73 AUDIO
    TITLE "12:cjc041_0278"
    INDEX 01 01:46:16
  TRACK 74 AUDIO
    TITLE "0:"
    INDEX 01 01:47:74
  TRACK 75 AUDIO
    TITLE "13:cjc041_0279"
    INDEX 01 01:48:50
  TRACK 76 AUDIO
    TITLE "0:"
    INDEX 01 01:50:56
  TRACK 77 AUDIO
    TITLE "14:cjc041_0280"
    INDEX 01 01:51:34
  TRACK 78 AUDIO
    TITLE "0:"
    INDEX 01 01:56:20
  TRACK 79 AUDIO
    TITLE "12:cjc041_0281"
    INDEX 01 01:56:73
  TRACK 80 AUDIO
    TITLE "0:"
    INDEX 01 01:58:13
  TRACK 81 AUDIO
    TITLE "13:cjc041_0282"
    INDEX 01 01:58:68
  TRACK 82 AUDIO
    TITLE "0:"
    INDEX 01 02:01:35
  TRACK 83 AUDIO
    TITLE "14:cjc041_0283"
    INDEX 01 02:02:13
  TRACK 84 AUDIO
    TITLE "0:"
    INDEX 01 02:05:29
  TRACK 85 AUDIO
    TITLE "12:cjc041_0284"
    INDEX 01 02:06:10
  TRACK 86 AUDIO
    TITLE "0:"
    INDEX 01 02:08:23
  TRACK 87 AUDIO
    TITLE "13:cjc041_0285"
    INDEX 01 02:09:03
  TRACK 88 AUDIO
    TITLE "0:"
    INDEX 01 02:11:17
  TRACK 89 AUDIO
    TITLE "14:cjc041_0286"
    INDEX 01 02:11:70
  TRACK 90 AUDIO
    TITLE "0:"
    INDEX 01 02:15:13
  TRACK 91 AUDIO
    TITLE "12:cjc041_0287"
    INDEX 01 02:15:68
  TRACK 92 AUDIO
    TITLE "0:"
    INDEX 01 02:17:34
  TRACK 93 AUDIO
    TITLE "13:cjc041_0288"
    INDEX 01 02:18:12
  TRACK 94 AUDIO
    TITLE "0:"
    INDEX 01 02:19:58
  TRACK 95 AUDIO
    TITLE "14:cjc041_0289"
    INDEX 01 02:20:38
  TRACK 96 AUDIO
    TITLE "0:"
    INDEX 01 02:25:14
